<?xml version="1.0" standalone="no"?>
<!DOCTYPE svg PUBLIC "-//W3C//DTD SVG 20010904//EN"
 "http://www.w3.org/TR/2001/REC-SVG-20010904/DTD/svg10.dtd">
<svg version="1.0" xmlns="http://www.w3.org/2000/svg"
 width="260.000000pt" height="260.000000pt" viewBox="0 0 260.000000 260.000000"
 preserveAspectRatio="xMidYMid meet">
<metadata>
Created by potrace 1.14, written by Peter Selinger 2001-2017
</metadata>
<g transform="translate(0.000000,260.000000) scale(0.100000,-0.100000)"
fill="#000000" stroke="none">
<path d="M494 2066 c-9 -24 28 -117 53 -133 17 -12 41 -13 106 -8 73 6 89 4
123 -13 83 -42 192 -192 140 -192 -31 0 -177 -55 -260 -99 -119 -62 -215 -150
-258 -239 -29 -59 -33 -76 -33 -147 0 -68 5 -88 29 -135 38 -73 141 -174 246
-243 47 -30 210 -118 362 -196 l276 -142 270 135 c148 74 308 158 356 186 113
67 223 171 262 247 26 51 29 68 29 148 0 80 -3 97 -29 147 -35 70 -137 171
-222 220 -72 42 -222 103 -276 113 -21 4 -38 13 -38 19 0 21 56 100 95 135 61
53 97 64 187 56 51 -4 84 -2 98 5 24 13 60 89 60 126 0 33 -21 31 -120 -11
-151 -63 -301 -163 -378 -250 l-39 -45 -124 8 c-68 4 -180 4 -248 0 l-125 -8
-70 69 c-83 80 -182 146 -310 207 -112 53 -153 63 -162 40z m973 -410 c3 -2
-4 -21 -15 -43 -32 -63 -35 -91 -13 -103 25 -13 102 -13 135 0 23 8 26 15 26
54 0 25 5 48 11 51 17 11 153 -43 222 -88 l62 -40 -42 -18 c-44 -19 -266 -90
-416 -134 -58 -17 -99 -36 -122 -57 l-36 -31 -27 25 c-39 37 -58 45 -210 88
-120 34 -227 69 -339 110 -18 7 -31 16 -28 21 17 27 230 129 269 129 12 0 16
-11 16 -44 0 -58 24 -76 100 -76 83 0 88 7 65 77 -11 32 -21 63 -23 70 -2 8
15 13 50 16 58 5 309 -1 315 -7z m-788 -486 c92 -92 233 -134 373 -111 74 12
179 53 199 77 16 20 34 17 77 -11 87 -57 224 -85 332 -66 146 26 267 121 312
244 l21 59 15 -27 c7 -15 16 -51 19 -80 24 -229 -276 -428 -680 -451 -341 -20
-684 114 -782 306 -34 67 -40 127 -20 197 l17 58 34 -72 c21 -47 51 -91 83
-123z"/>
<path d="M1225 1063 c-57 -15 -21 -53 54 -57 42 -2 55 2 72 20 11 12 16 25 11
28 -14 8 -114 16 -137 9z"/>
<path d="M971 986 c-9 -11 -3 -14 36 -18 27 -3 93 -24 147 -48 117 -50 154
-50 278 -1 46 19 94 31 122 31 51 0 59 11 21 28 -38 18 -101 15 -195 -9 -99
-25 -191 -22 -307 11 -86 24 -87 24 -102 6z"/>
<path d="M321 1554 c-120 -69 -234 -210 -247 -307 -9 -67 37 -159 125 -246 54
-54 169 -131 195 -131 20 0 -1 40 -45 87 -27 29 -62 79 -77 110 -24 51 -27 70
-27 158 0 94 2 105 33 168 19 38 57 92 88 123 30 31 54 60 54 65 0 18 -36 8
-99 -27z"/>
<path d="M2180 1581 c0 -5 24 -34 54 -65 31 -31 69 -85 88 -123 31 -63 33 -74
33 -168 0 -88 -3 -107 -27 -158 -15 -31 -50 -81 -77 -110 -44 -47 -65 -87 -45
-87 26 0 141 77 195 131 88 87 134 179 125 246 -8 61 -56 142 -127 214 -78 78
-219 156 -219 120z"/>
</g>
</svg>
